<svg xmlns="http://www.w3.org/2000/svg" xmlns:xlink="http://www.w3.org/1999/xlink" width="500" zoomAndPan="magnify" viewBox="0 0 375 374.999991" height="500" preserveAspectRatio="xMidYMid meet" version="1.0"><defs><clipPath id="76d733e2fe"><path d="M 37.5 187.5 L 337.5 187.5 L 337.5 216 L 37.5 216 Z M 37.5 187.5 " clip-rule="nonzero"/></clipPath></defs><rect x="-37.5" width="450" fill="#ffffff" y="-37.499999" height="449.999989" fill-opacity="1"/><rect x="-37.5" width="450" fill="#ffffff" y="-37.499999" height="449.999989" fill-opacity="1"/><rect x="-37.5" width="450" fill="#ffffff" y="-37.499999" height="449.999989" fill-opacity="1"/><g clip-path="url(#76d733e2fe)"><path fill="#94b49f" d="M 335.917969 194.570312 C 291.167969 208.71875 254.492188 215.789062 225.890625 215.789062 C 210.796875 215.789062 193.332031 213.71875 173.492188 209.570312 C 170.535156 209.039062 154.652344 205.257812 125.839844 198.238281 C 108.949219 194.09375 96.550781 192.019531 88.632812 192.019531 C 72.695312 192.019531 56.863281 198.398438 41.140625 211.164062 C 40.71875 211.484375 40.292969 211.644531 39.875 211.644531 C 38.289062 211.644531 37.5 210.902344 37.5 209.410156 C 37.5 208.878906 37.765625 208.402344 38.289062 207.972656 C 54.226562 194.464844 72.167969 187.710938 92.117188 187.710938 C 105.730469 187.710938 120.296875 189.144531 135.8125 192.019531 C 149.527344 194.675781 163.199219 197.390625 176.8125 200.15625 C 194.121094 203.027344 211.535156 204.464844 229.058594 204.464844 C 269.585938 204.464844 304.78125 199.785156 334.648438 190.421875 C 336.550781 189.890625 337.5 190.636719 337.5 192.65625 C 337.5 193.613281 336.972656 194.25 335.917969 194.570312 Z M 335.917969 194.570312 " fill-opacity="1" fill-rule="nonzero"/></g></svg>